# xmcd
# 
# Track frame offsets:
#     150
#     22302
#     41407
#     59275
#     78515
#     92080
#     111882
#     129510
#     143267
#     156015
#     174595
#     187672
#     203572
#     214295
#     229280
#     244780
#     258877
#     272572
#     290467
#     308462
# 
# Disc length: 4415
# 
# Revision: 1
# Processed by: cddbd v1.5.2PL0 Copyright (c) Steve Scherf et al.
# Submitted via: fre:ac v1.1beta1pre5
# 
DISCID=0d113d14
DTITLE=Various Artist - The Island Story
DYEAR=1987
DGENRE=Pop
TTITLE0=U2 - With Or Without You
TTITLE1=Steve Winwood - Higher Love
TTITLE2=Robert Palmer - Addicted To Love
TTITLE3=Free - All Right Now
TTITLE4=Roxy Music - Virginia Plain
TTITLE5=Grace Jones - Slave To The Rhythm
TTITLE6=Kid Creole - Annie I'm Not Your Daddy
TTITLE7=Gibson Brothers - Cuba
TTITLE8=Bob and Earl - Harlem Shuffle
TTITLE9=Bob Marley - No Woman No Cry
TTITLE10=Bryan Ferry - Smoke Gets In Your Eyes
TTITLE11=Pete Wingfield - Eighteen With A Bullet
TTITLE12=Fairport Convention - Si Tu Dois Partir
TTITLE13=Cat Stevens - Morning Has Broken
TTITLE14=Jethro Tull - Living In The Past
TTITLE15=Julian Cope - World Shut Your Mouth
TTITLE16=Amazulu - Too Good To Be Forgotten
TTITLE17=Will Powers - Kissing With Confidence
TTITLE18=The Christians - Forgotten Town
TTITLE19=Frankie Goes To Hollywood - Rage Hard
EXTD=
EXTT0=
EXTT1=
EXTT2=
EXTT3=
EXTT4=
EXTT5=
EXTT6=
EXTT7=
EXTT8=
EXTT9=
EXTT10=
EXTT11=
EXTT12=
EXTT13=
EXTT14=
EXTT15=
EXTT16=
EXTT17=
EXTT18=
EXTT19=
PLAYORDER=
